<?xml version="1.0" encoding="UTF-8"?>
<svg width="800" height="800" viewBox="0 0 800 800" fill="none" xmlns="http://www.w3.org/2000/svg">
  <!-- Desk -->
  <rect x="100" y="500" width="600" height="20" fill="currentColor"/>
  <rect x="150" y="520" width="20" height="200" fill="currentColor"/>
  <rect x="630" y="520" width="20" height="200" fill="currentColor"/>
  
  <!-- Monitor -->
  <rect x="200" y="200" width="400" height="250" rx="10" stroke="currentColor" stroke-width="10" fill="none"/>
  <rect x="220" y="220" width="360" height="210" fill="currentColor" opacity="0.1"/>
  
  <!-- Code Lines -->
  <rect x="240" y="240" width="200" height="10" fill="currentColor" opacity="0.5"/>
  <rect x="240" y="260" width="150" height="10" fill="currentColor" opacity="0.5"/>
  <rect x="240" y="280" width="250" height="10" fill="currentColor" opacity="0.5"/>
  <rect x="240" y="300" width="180" height="10" fill="currentColor" opacity="0.5"/>
  <rect x="240" y="320" width="220" height="10" fill="currentColor" opacity="0.5"/>
  
  <!-- Monitor Stand -->
  <rect x="370" y="450" width="60" height="50" fill="currentColor"/>
  <rect x="350" y="470" width="100" height="10" fill="currentColor"/>
  
  <!-- Coffee Cup -->
  <rect x="550" y="460" width="40" height="40" rx="5" fill="currentColor"/>
  <rect x="540" y="470" width="60" height="5" fill="currentColor"/>
  
  <!-- Brackets -->
  <text x="700" y="150" font-family="monospace" font-size="100" fill="currentColor" opacity="0.2">{</text>
  <text x="50" y="650" font-family="monospace" font-size="100" fill="currentColor" opacity="0.2">}</text>
</svg> 